<svg viewBox="0 0 512 512" xmlns="http://www.w3.org/2000/svg"><path d="m256 15c133.101562.003906 241 107.902344 241 241.003906 0 133.097656-107.898438 240.996094-241 240.996094-133.101562.003906-241-107.898438-241-240.996094 0-133.101562 107.898438-241 241-241.003906zm0 0" fill="#fcdb2c"/><path d="m256 15v482c133.101562 0 241-107.898438 241-240.996094 0-133.101562-107.898438-241-241-241.003906zm0 0" fill="#ff9f04"/><path d="m437.019531 74.980469c-48.351562-48.347657-112.636719-74.980469-181.019531-74.980469-62.867188 0-122.265625 22.523438-169.011719 63.730469-.015625.015625-.03125.027343-.046875.042969-4.082031 3.601562-8.078125 7.324218-11.960937 11.207031-48.351563 48.355469-74.980469 112.640625-74.980469 181.023437 0 2.65625.0546875 5.304688.136719 7.949219 0 .261719.011719.519531.027343.777344 2.164063 65.105469 28.527344 126 74.816407 172.289062 18.136719 18.136719 38.511719 33.214844 60.507812 44.980469h-120.488281c-8.285156 0-15 6.714844-15 15 0 8.28125 6.714844 15 15 15h241c68.382812 0 132.667969-26.628906 181.019531-74.980469 46.296875-46.296875 72.660157-107.207031 74.820313-172.324219.011718-.234374.019531-.46875.023437-.703124.082031-2.65625.136719-5.316407.136719-7.988282 0-68.382812-26.628906-132.667968-74.980469-181.023437zm-38.390625 5.847656c-1.359375 6.527344-3.152344 12.886719-5.359375 19.046875-7.238281-13.742188-15.445312-27.019531-24.523437-39.6875 10.527344 6.085938 20.511718 13 29.882812 20.640625zm-142.628906-50.828125c18.132812 0 35.769531 2.160156 52.679688 6.214844 28.417968 27.605468 51.589843 60.964844 67.429687 97.101562-10.46875 15.164063-23.726563 28.234375-38.953125 38.507813-11.515625-33.007813-29.855469-63.628907-53.707031-89.457031-18.222657-19.730469-39.511719-36.476563-62.808594-49.59375 11.523437-1.820313 23.332031-2.773438 35.359375-2.773438zm-80.257812 14.738281c64.167968 24.414063 113.527343 76.429688 134.578124 141.40625-15.492187 6.300781-32.222656 9.988281-49.585937 10.558594-11.015625-30.832031-30.304687-57.757813-56.269531-78.363281-26.4375-20.984375-57.695313-33.679688-91-37.074219-.027344-.148437-.058594-.292969-.089844-.4375 18.574219-15.152344 39.59375-27.40625 62.367188-36.089844zm51.417968 149.125c-45.046875-9.222656-83.355468-39.5625-102.902344-80.667969 45.167969 9.054688 83.335938 38.972657 102.902344 80.667969zm-138.589844-89.503906c9.699219 30.496094 27.675782 58.023437 52.164063 79.328125 31.941406 27.792969 72.875 43.101562 115.265625 43.101562 27.484375 0 54.351562-6.441406 78.558594-18.542968.390625-.175782.769531-.363282 1.140625-.566406 12.703125-6.46875 24.660156-14.5 35.566406-23.988282 13.464844-11.71875 24.957031-25.320312 34.191406-40.253906.183594-.269531.347657-.546875.515625-.824219 7.320313-11.988281 13.1875-24.832031 17.460938-38.25 13.402344 14.785157 24.875 31.34375 34.023437 49.28125-38.386719 75.242188-116.675781 123.476563-201.457031 123.476563-84.78125.003906-163.066406-48.230469-201.457031-123.476563 9.148437-17.9375 20.625-34.5 34.027343-49.285156zm-5.828124 296.757813c-23.535157-28.003907-39.6875-60.851563-47.445313-96.15625 24.035156 20.953124 50.84375 38.300781 80.097656 51.78125 19.433594 8.953124 39.464844 15.96875 59.972657 21.019531-23.550782 15.554687-51.132813 23.90625-80.03125 23.90625-4.195313 0-8.410157-.191407-12.59375-.550781zm131.871093-16.164063c13.632813 1.664063 27.441407 2.5 41.386719 2.5 7.980469 0 15.914062-.277344 23.796875-.820313-25.878906 36.589844-61.964844 64.675782-104.191406 80.703126-22.644531-8.605469-43.847657-20.871094-62.867188-36.515626 38.121094-3.71875 73.585938-19.640624 101.875-45.867187zm94.105469 90.824219c-16.917969 4.058594-34.570312 6.222656-52.71875 6.222656-11.925781 0-23.707031-.933594-35.269531-2.730469 40.660156-22.8125 74.417969-56.375 97.648437-97.558593 21.925782-4.105469 43.351563-10.40625 64.148438-18.871094-15.792969 42.472656-40.921875 81.007812-73.808594 112.9375zm60.183594-24.054688c23.09375-32.214844 40.339844-68.289062 50.859375-106.746094 20.34375-11.332031 39.339843-24.679687 56.867187-39.949218-13.894531 62.566406-53.785156 115.457031-107.726562 146.695312zm113.074218-193.8125c-57.988281 63.320313-140.023437 99.542969-225.976562 99.542969-85.960938 0-167.992188-36.222656-225.976562-99.546875-.007813-.632812-.023438-1.269531-.023438-1.902344 0-23.367187 3.5625-45.917968 10.179688-67.140625 19.695312 30.832031 45.824218 57.195313 76.828124 77.277344 41.394532 26.8125 89.460938 40.980469 138.992188 40.980469s97.59375-14.171875 138.992188-40.984375c31.003906-20.078125 57.136718-46.441407 76.828124-77.273438 6.613282 21.222657 10.179688 43.773438 10.179688 67.140625 0 .636719-.019531 1.269532-.023438 1.90625zm0 0" fill="#ff9100"/><path d="m437.019531 74.980469c-48.351562-48.347657-112.636719-74.980469-181.019531-74.980469v30c18.132812 0 35.769531 2.160156 52.679688 6.214844 28.417968 27.605468 51.589843 60.964844 67.429687 97.101562-10.46875 15.164063-23.726563 28.234375-38.953125 38.507813-11.515625-33.007813-29.855469-63.628907-53.707031-89.457031-8.515625-9.21875-17.707031-17.777344-27.449219-25.628907v40.214844c24.558594 24.796875 43.316406 55.21875 54.320312 89.191406-15.492187 6.300781-32.222656 9.988281-49.585937 10.558594-1.4375-4.019531-3.019531-7.972656-4.734375-11.855469v41.941406c27.484375 0 54.351562-6.441406 78.558594-18.542968.390625-.175782.769531-.363282 1.140625-.570313 12.703125-6.464843 24.660156-14.496093 35.566406-23.984375 13.464844-11.71875 24.957031-25.320312 34.191406-40.257812.183594-.265625.347657-.542969.515625-.820313 7.320313-11.992187 13.1875-24.832031 17.460938-38.25 13.402344 14.785157 24.875 31.34375 34.023437 49.277344-38.386719 75.246094-116.675781 123.480469-201.457031 123.480469v30c49.53125 0 97.59375-14.171875 138.992188-40.980469 31.003906-20.082031 57.136718-46.445313 76.828124-77.273437 6.613282 21.21875 10.179688 43.769531 10.179688 67.136718 0 .636719-.019531 1.269532-.023438 1.90625-57.988281 63.320313-140.023437 99.542969-225.976562 99.542969v30c7.980469 0 15.914062-.277344 23.796875-.820313-7.175781 10.144532-15.140625 19.632813-23.796875 28.394532v40.371094c25.054688-20.191407 46.257812-45.101563 62.378906-73.6875 21.929688-4.105469 43.351563-10.40625 64.148438-18.871094-15.792969 42.472656-40.921875 81.007812-73.808594 112.9375-16.917969 4.058594-34.570312 6.222656-52.71875 6.222656v30c68.382812 0 132.667969-26.628906 181.019531-74.980469 46.296875-46.292969 72.660157-107.203125 74.820313-172.324219.011718-.234374.019531-.464843.023437-.699218.082031-2.660156.136719-5.320313.136719-7.992188 0-68.382812-26.628906-132.667968-74.980469-181.023437zm-43.75 24.894531c-7.234375-13.742188-15.445312-27.019531-24.523437-39.6875 10.527344 6.085938 20.511718 13 29.882812 20.640625-1.359375 6.527344-3.152344 12.886719-5.359375 19.046875zm-24.367187 351.847656c23.09375-32.214844 40.339844-68.289062 50.859375-106.746094 20.34375-11.332031 39.339843-24.679687 56.867187-39.949218-13.894531 62.566406-53.785156 115.457031-107.726562 146.695312zm0 0" fill="#d26a00"/></svg>